<svg xmlns="http://www.w3.org/2000/svg"
    xmlns:xlink="http://www.w3.org/1999/xlink" version="1.1" id="Layer_1" x="0px" y="0px" viewBox="0 0 456.5 100" style="enable-background:new 0 0 456.5 100;" xml:space="preserve">
    <style type="text/css">
        .st0{fill:#D93A26;}
        .st1{fill:#282828;}
    </style>
    <g>
        <path class="st0" d="M64.3,38.1h11.3c0.3,0,0.7,0.1,0.9,0.3c0,0,0,0.1,0,0.1v21.6v9.1v11.6v1.5v1.2v6.1c0,1.3,1.2,2.2,2.4,1.8   l1.8-0.6c4.7-1.8,10.2-3.8,16.8-5.9c0.1-0.2,0.2-0.5,0.2-0.8v-1.8v-1.5V38.5c0-0.1,0-0.2,0-0.3v-0.1h0V6.8c0-1-0.8-1.9-1.9-1.9H86   c-0.8,0-1.5,0.5-1.8,1.3c-3,8.9-8.8,15.5-17.8,17.1c-0.7,0.1-1.5,0.2-2.3,0.3c-1,0.1-1.7,0.9-1.7,1.9v10.7   C62.4,37.3,63.2,38.1,64.3,38.1z"/>
        <path class="st0" d="M78.9,1.5c-0.4-0.4-1-0.7-1.6-0.7H30.9h-1.7h-25C1.9,0.8,0,2.5,0,4.6v13.6c0,0.7,0.7,1.3,1.5,1.3h28v10.5   c0,0,0,0.1,0,0.1v61.5c0,0.6,0.4,1.1,0.9,1.2c6.9,2.1,13.2,4.7,18.2,7c0.9,0.4,1.8-0.2,1.8-1.2l0-76.3c0-0.2,0-0.3-0.1-0.5   c-0.2-0.8,0.1-1.8,1-2.1c0.2-0.1,0.4-0.1,0.7-0.1h8c0,0,0.1,0,0.1,0C77.3,18,79.1,4.6,79.3,3c0-0.1,0-0.2,0-0.3V2.4   C79.3,2.1,79.2,1.7,78.9,1.5z"/>
    </g>
    <g>
        <path class="st1" d="M130.2,17.7c-7.3,0-14.3,2.8-19.3,7.8v-7.8h-7.3v67.8h7.3V59.6c5,4.9,11.9,7.7,19.2,7.7   c14.6,0,26.5-11.1,26.5-24.8S144.7,17.7,130.2,17.7z M149.2,42.5c0,10-8.6,18.2-19.2,18.2c-10.6,0-19.2-8.1-19.2-18.1   c0.2-10.1,8.8-18.2,19.1-18.2c0.1,0,0.1,0,0.2,0C140.7,24.3,149.2,32.5,149.2,42.5z"/>
        <path class="st1" d="M203.7,25.4c-5-4.9-11.9-7.7-19.2-7.7c-14.6,0-26.5,11.1-26.5,24.8s11.9,24.8,26.5,24.8   c7.3,0,14.2-2.8,19.2-7.7v7.7h7.3V17.7h-7.3V25.4z M203.7,42.5c0,10-8.6,18.2-19.2,18.2s-19.2-8.1-19.2-18.2   c0-10,8.6-18.2,19.2-18.2S203.7,32.5,203.7,42.5z"/>
        <path class="st1" d="M262.8,25.4c-5-4.9-11.9-7.7-19.2-7.7c-14.6,0-26.5,11.1-26.5,24.8s11.9,24.8,26.5,24.8   c7.3,0,14.2-2.8,19.2-7.7V64c0,6-7.4,14.7-19.1,14.8H240v6.7h1.4h2.3c16.3-0.1,26.4-12.6,26.4-21.5l0.1-42.8l0.2-3.4h-7.6V25.4z    M243.6,60.6c-10.6,0-19.2-8.1-19.2-18.2c0-10,8.6-18.2,19.2-18.2s19.2,8.1,19.2,18.2C262.8,52.5,254.2,60.6,243.6,60.6z"/>
        <rect x="280.7" y="5.8" class="st1" width="7.4" height="6.7"/>
        <rect x="280.7" y="17.7" class="st1" width="7.3" height="49.6"/>
        <path class="st1" d="M344.8,63.9V38.9c0-11.7-10.4-21.2-23.1-21.2c-5.9,0-11.5,2-15.8,5.7v-5.7h-7.3v49.6h7.3V38.9   c0-8,7.1-14.5,15.8-14.5s15.8,6.5,15.8,14.6l0.1,25.3l0.2,3.2h7.2L344.8,63.9z"/>
    </g>
    <path class="st1" d="M435.3,38.9c-7.2-2-14.6-4-14.6-7.3c0-4,6.1-7.3,13.4-7.3s13.4,3.4,13.4,7.3V33h7.3v-1.4c0-7.7-9.3-14-20.7-14  s-20.7,6.3-20.7,14c0.1,8.5,11.4,11.6,21.4,14.3c7.2,2,14.6,4,14.6,7.3c0,4-7,7.3-15.3,7.3s-15.3-3.4-15.3-7.3v-1.4h-7.3v1.4  c0,7.8,9.9,14,22.6,14s22.6-6.1,22.6-14C456.7,44.8,445.3,41.7,435.3,38.9z"/>
    <path class="st1" d="M190.2,10.6c-0.5,1.1-1.2,1.7-2.1,1.7h-3.6c-0.5,0-0.9-0.1-1-0.3c-0.2-0.2-0.3-0.5-0.3-0.8  c0.1-0.2,0.1-0.4,0.1-0.6c0-0.2,0.1-0.5,0.3-0.8l3.5-8.1c0.3-0.6,0.6-1,0.9-1.3c0.3-0.3,0.7-0.4,1.2-0.4h3.9c0.7,0,1,0.3,1,0.9  c0,0.2,0,0.4,0,0.7c0,0.2-0.1,0.5-0.3,0.8L190.2,10.6z"/>
    <path class="st1" d="M404.3,17.5L404.3,17.5L404.3,17.5l-13.6-0.1v-2.6C390.6,7.2,385,1,378,1c-7,0-12.7,6.2-12.7,13.7v2.4L351.4,17  l-0.2,23.4c0,0.2,0,0.4,0,0.7l0,0.4c0,0,0-0.1,0-0.2c0,0.3,0,0.5,0,0.8c0,13.8,11.9,25,26.6,25c1.3,0,26.5,0,26.5,0V17.5z   M377.8,60.4c-10.6,0-19.2-8.1-19.2-18.2c0-10,8.6-18.2,19.2-18.2s19.2,8.1,19.2,18.2C396.9,52.3,388.3,60.4,377.8,60.4z M378,5.2  c4.9,0,8.8,4.3,8.8,9.6v2.5l-17.6-0.2v-2.4C369.2,9.5,373.1,5.2,378,5.2z"/>
</svg>